# xmcd
#
# Track frame offsets:
#	150
#	20599
#	37568
#	47861
#	63302
#	82467
#	99292
#	113393
#	125891
#	144736
#	155343
#	172191
#	186778
#	206166
#	217382
#
# Disc length: 3121 seconds
#
# Revision: 2
# Processed by: cddbd v1.5.2PL0 Copyright (c) Steve Scherf et al.
# Submitted via: EasyCDDAExtractor 12.0.0.1
#
DISCID=df0c2f0f
DTITLE=Various Artist - Magic of the Musicals CD2
DYEAR=2003
DGENRE=Musical
TTITLE0=All I Ask of You - Phantom of the Opera
TTITLE1=Memory - Cats
TTITLE2=Any Dream Will Do - Joseph and his Technicolor Dreamcoat
TTITLE3=I'd Do Anything - Oliver
TTITLE4=Anything Goes - Anything Goes
TTITLE5=I Know Him So Well - Chess
TTITLE6=With One Look - Sunset Boulevard
TTITLE7=The People's Song - Les Miserables
TTITLE8=The Last Night of the World - Miss Saigon
TTITLE9=Throughly Modern Millie - Throughly Modern Millie
TTITLE10=I Don't Know How To Love Him - Jesus Christ Superstar
TTITLE11=It's Nicer In Nice - The Boyfriend
TTITLE12=One Song Glory - Rent
TTITLE13=Rainbow High - Evita
TTITLE14=Sweet Transvestite - The Rocky Horror Show
EXTD=
EXTT0=
EXTT1=
EXTT2=
EXTT3=
EXTT4=
EXTT5=
EXTT6=
EXTT7=
EXTT8=
EXTT9=
EXTT10=
EXTT11=
EXTT12=
EXTT13=
EXTT14=
PLAYORDER=
